<!DOCTYPE svg PUBLIC "-//W3C//DTD SVG 1.1//EN" "http://www.w3.org/Graphics/SVG/1.1/DTD/svg11.dtd">
<!-- Uploaded to: SVG Repo, www.svgrepo.com, Transformed by: SVG Repo Mixer Tools -->
<svg fill="#5190f5" height="100px" width="100px" version="1.1" id="Layer_1" xmlns="http://www.w3.org/2000/svg" xmlns:xlink="http://www.w3.org/1999/xlink" viewBox="0 0 508 508" xml:space="preserve" stroke="#5190f5" stroke-width="7.112">
<g id="SVGRepo_bgCarrier" stroke-width="0"/>
<g id="SVGRepo_tracerCarrier" stroke-linecap="round" stroke-linejoin="round"/>
<g id="SVGRepo_iconCarrier"> <g> <g> <path d="M254,0C114,0,0,114,0,254s114,254,254,254c4,0,8.4-0.8,12-2h0.4c16.8-5.6,28-21.2,28-38.8c0-22.4-18.4-40.8-40.8-40.8 c-4,0-8-0.4-11.6-1.2c-0.4-0.4-0.8-0.4-1.2-0.4H240c-26.4-6.4-44.8-29.6-44.8-56.8c0-32,26-58.4,58.4-58.4l192-0.4 C484,309.2,508,288,508,254C508,114,394,0,254,0z M445.2,301.2l-192,0.4c-36.4,0-66.4,29.6-66.4,66.4c0,31.2,21.2,57.6,51.2,64.8 h0.4c0.8,0,1.2,0.4,1.6,0.4c4.4,0.8,8.8,1.2,13.6,1.2c18,0,32.8,14.8,32.8,32.8c0,14.4-9.2,26.8-22.8,31.2h-0.4 c-2.8,1.2-6,1.6-9.2,1.6C118.4,500,8,389.6,8,254S118.4,8,254,8s246,110.4,245.6,246C499.6,283.6,479.2,301.2,445.2,301.2z"/> </g> </g> <g> <g> <path d="M385.2,123.2c-26.4,0-47.6,21.6-47.6,47.6c0,26.4,21.6,47.6,47.6,47.6c26.4,0,47.6-21.6,47.6-47.6 C432.8,144.4,411.2,123.2,385.2,123.2z M385.2,210.4c-22,0-39.6-18-39.6-39.6c0-22,18-39.6,39.6-39.6c22,0,39.6,18,39.6,39.6 C424.8,192.8,406.8,210.4,385.2,210.4z"/> </g> </g> <g> <g> <path d="M262,56c-26.4,0-47.6,21.2-47.6,47.6c0,26.4,21.6,47.6,47.6,47.6s47.6-21.2,47.6-47.6C309.6,77.2,288,56,262,56z M262,143.2c-22,0-39.6-18-39.6-39.6c0-22,18-39.6,39.6-39.6c21.6,0,39.6,17.6,39.6,39.6S283.6,143.2,262,143.2z"/> </g> </g> <g> <g> <path d="M143.2,119.2c-26.4,0-47.6,21.6-47.6,47.6c0,26.4,21.6,47.6,47.6,47.6c26.4,0,47.6-21.6,47.6-47.6 C190.8,140.4,169.2,119.2,143.2,119.2z M143.2,206.4c-22,0-39.6-18-39.6-39.6c0-22,18-39.6,39.6-39.6c22,0,39.6,17.6,39.6,39.6 S164.8,206.4,143.2,206.4z"/> </g> </g> <g> <g> <path d="M107.2,245.6c-26.4,0-47.6,21.2-47.6,47.6c0,26.4,21.6,47.6,47.6,47.6c26.4,0,47.6-21.2,47.6-47.6 C154.8,266.8,133.2,245.6,107.2,245.6z M107.2,332.8c-22,0-39.6-18-39.6-39.6c0-22,18-39.6,39.6-39.6c22,0,39.6,18,39.6,39.6 C146.8,315.2,128.8,332.8,107.2,332.8z"/> </g> </g> <g> <g> <path d="M162.4,162.8c-2.4,0-4,1.6-4,4c0,8.4-7.2,15.6-15.6,15.6c-8.4,0-15.6-7.2-15.6-15.6s6.8-15.6,15.6-15.6c2.4,0,4-1.6,4-4 c0-2.4-1.6-4-4-4c-13.2,0-23.6,10.4-23.6,23.6s10.4,23.6,23.6,23.6c13.2,0,23.6-10.8,23.6-23.6 C166.4,164.4,164.8,162.8,162.4,162.8z"/> </g> </g> <g> <g> <path d="M404.8,166.8c-2.4,0-4,1.6-4,4c0,8.4-6.8,15.6-15.6,15.6c-8.4,0-15.6-6.8-15.6-15.6c0-8.4,6.8-15.6,15.6-15.6 c2.4,0,4-1.6,4-4c0-2.4-1.6-4-4-4c-13.2,0-23.6,10.4-23.6,23.6s10.4,23.6,23.6,23.6s23.6-10.4,23.6-23.6 C408.8,168.4,407.2,166.8,404.8,166.8z"/> </g> </g> </g>
</svg>